<svg xmlns="http://www.w3.org/2000/svg" width="512" height="512" viewBox="0 0 512 512"><path style="fill: #c2c2c2" d="M147.4 314.6c-7.8 1.6-15.2 5.4-21.2 11.4L12.4 439.8c-16.6 16.5-16.6 43.3 0 59.9 16.5 16.5 43.3 16.5 59.9 0l113.7-113.7c6-6 9.8-13.5 11.4-21.2 78.1 54.3 186.4 46.9 255.9-22.7 78.1-78.1 78.1-205.2 0-283.4 -78.1-78.1-205.2-78.1-283.3 0C100.5 128.2 93.1 236.5 147.4 314.6zM206 94.5c58.3-58.3 153.2-58.3 211.5 0 58.3 58.3 58.3 153.2 0 211.5 -58.3 58.3-153.2 58.3-211.5 0C147.7 247.7 147.7 152.8 206 94.5z"/></svg>