<svg xmlns="http://www.w3.org/2000/svg" width="14" height="14" viewBox="-25.2 5644.1 50 50"><path style="fill: #e3e3e3" d="M22.1 5646.9c-1.8-1.8-4-2.7-6.6-2.7h-31.2c-2.6 0-4.8 0.9-6.6 2.8s-2.7 4-2.7 6.6v31.2c0 2.6 0.9 4.8 2.8 6.6 1.8 1.8 4 2.8 6.6 2.8h31.3c2.6 0 4.8-0.9 6.6-2.7s2.8-4 2.8-6.6v-31.2C24.8 5650.9 23.9 5648.7 22.1 5646.9zM-9.7 5684.6c-0.8 0.8-1.8 1.2-2.9 1.2s-2.1-0.4-2.9-1.2c-0.8-0.8-1.2-1.8-1.2-2.9s0.4-2.1 1.2-2.9c0.8-0.8 1.8-1.2 3-1.2s2.1 0.4 3 1.2c0.8 0.8 1.2 1.8 1.2 3S-8.9 5683.8-9.7 5684.6zM2.6 5685.5c-0.2 0.2-0.5 0.3-0.7 0.3h-4.2c-0.3 0-0.5-0.1-0.7-0.3 -0.2-0.2-0.3-0.4-0.3-0.7 -0.2-3.3-1.5-6.2-3.9-8.6 -2.4-2.4-5.2-3.7-8.6-3.9 -0.3 0-0.5-0.1-0.7-0.3 -0.2-0.2-0.3-0.4-0.3-0.7v-4.2c0-0.3 0.1-0.5 0.3-0.7 0.2-0.2 0.5-0.3 0.8-0.3 5.1 0.3 9.4 2.2 12.9 5.8 3.6 3.6 5.5 7.9 5.8 12.9C2.9 5685 2.8 5685.3 2.6 5685.5zM15.1 5685.5c-0.2 0.2-0.5 0.3-0.7 0.3h-4.2c-0.3 0-0.5-0.1-0.7-0.3 -0.2-0.2-0.3-0.4-0.3-0.7 -0.1-4.4-1.4-8.5-3.6-12.3s-5.3-6.8-9.1-9.1c-3.8-2.3-7.9-3.5-12.3-3.6 -0.3 0-0.5-0.1-0.7-0.3 -0.2-0.2-0.3-0.4-0.3-0.7v-4.2c0-0.3 0.1-0.5 0.3-0.7 0.2-0.2 0.5-0.3 0.8-0.3 3.3 0.1 6.6 0.7 9.7 1.8 3.1 1.1 5.9 2.6 8.5 4.5 2.5 1.9 4.8 4.1 6.7 6.7 1.9 2.5 3.4 5.4 4.5 8.5 1.1 3.1 1.7 6.3 1.8 9.7C15.5 5685 15.4 5685.3 15.1 5685.5z"/></svg>
