<svg xmlns="http://www.w3.org/2000/svg" width="14" height="14" viewBox="-25.2 5644.1 50 50"><path d="M22.1 5646.9c-1.8-1.8-4-2.7-6.6-2.7h-31.2c-2.6 0-4.8 0.9-6.6 2.8s-2.7 4-2.7 6.6v31.2c0 2.6 0.9 4.8 2.8 6.6 1.8 1.8 4 2.8 6.6 2.8h31.3c2.6 0 4.8-0.9 6.6-2.7s2.8-4 2.8-6.6v-31.2C24.8 5650.9 23.9 5648.7 22.1 5646.9zM-1.4 5676.5H8.4c2.7 0 4.9 2.2 4.9 4.9 0 2.7-2.2 4.9-4.9 4.9H-3.8c-5.4 0-9.7-4.4-9.7-9.7v-20.7c0-2.7 2.2-4.9 4.9-4.9s4.9 2.2 4.9 4.9v4.9H8.4c2.7 0 4.9 2.2 4.9 4.9 0 2.7-2.2 4.9-4.9 4.9H-3.8v3.7C-3.8 5675.4-2.7 5676.5-1.4 5676.5z"/></svg>
